<?xml version="1.0" encoding="UTF-8"?>
<svg viewBox="0 0 240 127" version="1.1" 
  xmlns="http://www.w3.org/2000/svg" 
  xmlns:xlink="http://www.w3.org/1999/xlink" class="bra-logo  bra-logo--payoff">
  <g class="logo--fill">
    <path d="M40.39,69.57H35V53h5.44c3.73,0,5.45,2.76,5.45,7.69,0,6.77-2.07,8.92-5.45,8.92M35,28.86h5.31c2.74,0,5,2,5,7.51s-2.56,7.49-5,7.49H35ZM49.46,47.78v0c2.16-1.5,5.61-4.08,5.61-12.38,0-10.72-5.64-15.58-13.26-15.58H25.18V78.66H41.72c9.38,0,14-6.9,14-17.18,0-9.59-3.79-12.23-6.21-13.7" transform="translate(-0.16 -0.16)"></path>
    <path d="M73.65,28.86H79c2.74,0,5,2,5,7.51s-2.55,7.49-5,7.49h-5.3ZM93.58,59c0-7.33-2.29-9.4-5.42-11.16v0c2.16-1.5,5.57-4.08,5.57-12.38,0-10.72-5.61-15.58-13.22-15.58H63.87V78.66h9.77V53H79c2.78,0,4.77,2.3,4.77,7.5v18.2h9.86Z" transform="translate(-0.16 -0.16)"></path>
    <path d="M112.64,14.46c0-4.43,4.1-5,6.36-5s6.35.56,6.35,5v29.4h-12.7ZM119,.16c-4.13,0-16.12.93-16.12,12.84V78.66h9.77V53h12.7V78.65h9.78V13c0-11.93-12-12.84-16.13-12.84" transform="translate(-0.16 -0.16)"></path>
    <path d="M164.41,19.77V66.11c0,2.36-2,3.94-4.88,3.94s-4.87-1.58-4.87-3.94V19.77h-9.78V67.66c0,9.12,9.45,11.55,14.66,11.55s14.65-2.44,14.65-11.56V19.77Z" transform="translate(-0.16 -0.16)"></path>
    <path d="M203.48,78.65V32.32c0-2.36-2-3.94-4.89-3.94s-4.86,1.59-4.86,3.94V78.65H184V30.77c0-9.11,9.45-11.54,14.66-11.54s14.64,2.44,14.64,11.55V78.65Z" transform="translate(-0.16 -0.16)"></path>
    <path d="M.16,108.1H6.32c4.58,0,6.55,3.32,6.55,7.4s-2,7.41-6.55,7.41H.16Zm2.6,12.69H5.32c4.08,0,4.95-2.3,4.95-5.29s-.87-5.29-4.95-5.29H2.76Z" transform="translate(-0.16 -0.16)"></path>
    <path d="M16.2,118.16c0,1.68.92,3.17,2.89,3.17a2.49,2.49,0,0,0,2.63-1.78H24a4.71,4.71,0,0,1-4.87,3.65c-3.39,0-5.26-2.32-5.26-5.64,0-3,2-5.67,5.2-5.67,3.39,0,5.47,3,5.08,6.27Zm5.54-1.56a2.77,2.77,0,1,0-5.54,0Z" transform="translate(-0.16 -0.16)"></path>
    <path d="M27.21,119.46c.14,1.39,1.16,1.87,2.43,1.87.92,0,2.46-.18,2.4-1.41s-1.79-1.39-3.52-1.78-3.45-1-3.45-3.18c0-2.34,2.53-3.07,4.49-3.07,2.2,0,4.22.89,4.49,3.3H31.58c-.23-1.14-1.13-1.43-2.19-1.43-.68,0-1.95.17-1.95,1.1,0,1.16,1.75,1.35,3.49,1.72s3.48,1,3.48,3.13c0,2.56-2.58,3.49-4.81,3.49-2.72,0-4.7-1.2-4.76-3.74Z" transform="translate(-0.16 -0.16)"></path>
    <path d="M35.78,108.1h2.37v2.24H35.78Zm0,4.08h2.37v10.73H35.78Z" transform="translate(-0.16 -0.16)"></path>
    <path d="M50.16,122.35c0,3.24-1.87,4.81-5.29,4.81-2.16,0-4.57-.83-4.8-3.34h2.37c.29,1.35,1.37,1.58,2.58,1.58a2.44,2.44,0,0,0,2.77-2.74V121h0a3.68,3.68,0,0,1-3.22,1.89c-3.41,0-4.83-2.57-4.83-5.64,0-2.89,1.81-5.38,4.87-5.38a3.35,3.35,0,0,1,3.18,1.76h0v-1.47h2.37Zm-2.37-5c0-1.85-.84-3.55-2.9-3.55s-2.83,1.95-2.83,3.73.86,3.55,2.83,3.55S47.79,119.15,47.79,117.31Z" transform="translate(-0.16 -0.16)"></path>
    <path d="M51.93,112.18h2.24v1.58l0,0a3.87,3.87,0,0,1,3.35-1.91c2.35,0,3.8,1.23,3.8,3.65v7.37H59v-6.74c-.06-1.69-.69-2.41-2.1-2.41a2.61,2.61,0,0,0-2.6,2.82v6.33H51.93Z" transform="translate(-0.16 -0.16)"></path>
    <path d="M65.12,118.16c0,1.68.91,3.17,2.89,3.17a2.47,2.47,0,0,0,2.62-1.78h2.25A4.71,4.71,0,0,1,68,123.2c-3.39,0-5.26-2.32-5.26-5.64,0-3,2-5.67,5.2-5.67,3.39,0,5.47,3,5.07,6.27Zm5.53-1.56a2.77,2.77,0,1,0-5.53,0Z" transform="translate(-0.16 -0.16)"></path>
    <path d="M84.57,122.91H82.32v-1.45h0A3.55,3.55,0,0,1,79,123.2c-3.39,0-5-2.51-5-5.73,0-3.9,2.31-5.58,4.66-5.58a4.19,4.19,0,0,1,3.58,1.68h0V108.1h2.37Zm-5.3-1.58c2.1,0,3-1.93,3-3.79,0-2.39-1.14-3.78-3-3.78-2.23,0-3,2-3,3.9S77.21,121.33,79.27,121.33Z" transform="translate(-0.16 -0.16)"></path>
    <path d="M90.86,112.18h1.76v-.89c0-2.74,1.44-3.19,3-3.19a6.65,6.65,0,0,1,1.66.14v1.85a3.72,3.72,0,0,0-1.1-.13c-.64,0-1.16.23-1.16,1.12v1.1h2V114H95v9H92.62v-9H90.86Z" transform="translate(-0.16 -0.16)"></path>
    <path d="M97.47,117.54c0-3.26,2-5.65,5.43-5.65s5.43,2.39,5.43,5.65-2,5.66-5.43,5.66S97.47,120.83,97.47,117.54Zm8.49,0c0-1.85-.94-3.78-3.06-3.78s-3.06,1.93-3.06,3.78.94,3.79,3.06,3.79S106,119.4,106,117.54Z" transform="translate(-0.16 -0.16)"></path>
    <path d="M109.81,112.18H112v2.08h0a3.49,3.49,0,0,1,3.14-2.37,5.7,5.7,0,0,1,.89.06v2.29a5,5,0,0,0-1-.11c-1.6,0-2.91,1.29-2.91,3.67v5.11h-2.37Z" transform="translate(-0.16 -0.16)"></path>
    <path d="M120.94,112.18h2.52l2.1,8h0l2-8H130l1.94,8h0l2.18-8h2.42l-3.37,10.73h-2.44l-2-8h0l-2,8h-2.5Z" transform="translate(-0.16 -0.16)"></path>
    <path d="M137.59,108.1H140v5.49h0a3.77,3.77,0,0,1,3.22-1.7c2.36,0,3.81,1.23,3.81,3.65v7.37h-2.37v-6.74c-.06-1.69-.69-2.41-2.1-2.41a2.61,2.61,0,0,0-2.6,2.82v6.33h-2.37Z" transform="translate(-0.16 -0.16)"></path>
    <path d="M158,120.52c0,.58.12.81.56.81h.25a2.11,2.11,0,0,0,.33,0v1.64a6.12,6.12,0,0,1-1.5.27c-1,0-1.64-.33-1.83-1.31a5.47,5.47,0,0,1-3.72,1.31c-1.94,0-3.68-1-3.68-3.13,0-2.68,2.14-3.12,4.14-3.34,1.72-.34,3.22-.11,3.22-1.52,0-1.24-1.29-1.45-2.22-1.45-1.34,0-2.27.54-2.38,1.7h-2.37c.17-2.76,2.5-3.57,4.89-3.57,2.1,0,4.31.85,4.31,3.11Zm-2.37-3a8.68,8.68,0,0,1-2.92.64c-1,.16-1.93.54-1.93,1.78,0,1.08,1.35,1.37,2.18,1.37,1,0,2.67-.54,2.67-2Z" transform="translate(-0.16 -0.16)"></path>
    <path d="M159,112.18h1.79V109h2.37v3.21h2.14V114h-2.14v5.72c0,1,.08,1.48,1.14,1.48a3.77,3.77,0,0,0,1-.09v1.83a13.31,13.31,0,0,1-1.54.12c-2.5,0-2.91-1-3-2.74V114H159Z" transform="translate(-0.16 -0.16)"></path>
    <path d="M171.77,112.18H174v1.5h.06a3.6,3.6,0,0,1,3.31-1.79,3.05,3.05,0,0,1,3,1.79,3.88,3.88,0,0,1,3.37-1.79c2.26,0,3.6,1,3.6,3.61v7.41H185v-6.27c0-1.72-.1-2.88-1.95-2.88-1.6,0-2.29,1-2.29,2.86v6.29h-2.37V116c0-1.49-.46-2.26-1.9-2.26a2.5,2.5,0,0,0-2.35,2.78v6.37h-2.37Z" transform="translate(-0.16 -0.16)"></path>
    <path d="M198.38,120.52c0,.58.13.81.56.81h.25a2.23,2.23,0,0,0,.34,0v1.64a6.3,6.3,0,0,1-1.5.27c-1,0-1.65-.33-1.83-1.31a5.51,5.51,0,0,1-3.73,1.31c-1.93,0-3.68-1-3.68-3.13,0-2.68,2.14-3.12,4.14-3.34,1.73-.34,3.23-.11,3.23-1.52,0-1.24-1.29-1.45-2.23-1.45-1.33,0-2.27.54-2.37,1.7h-2.37c.16-2.76,2.49-3.57,4.89-3.57,2.1,0,4.3.85,4.3,3.11Zm-2.37-3a8.62,8.62,0,0,1-2.91.64c-1,.16-1.94.54-1.94,1.78,0,1.08,1.36,1.37,2.19,1.37,1,0,2.66-.54,2.66-2Z" transform="translate(-0.16 -0.16)"></path>
    <path d="M199.36,112.18h1.79V109h2.37v3.21h2.14V114h-2.14v5.72c0,1,.08,1.48,1.15,1.48a3.69,3.69,0,0,0,1-.09v1.83a13.14,13.14,0,0,1-1.53.12c-2.5,0-2.92-1-3-2.74V114h-1.79Z" transform="translate(-0.16 -0.16)"></path>
    <path d="M205.79,112.18h1.79V109H210v3.21h2.14V114H210v5.72c0,1,.08,1.48,1.15,1.48a3.69,3.69,0,0,0,1-.09v1.83a13.31,13.31,0,0,1-1.54.12c-2.49,0-2.91-1-3-2.74V114h-1.79Z" transform="translate(-0.16 -0.16)"></path>
    <path d="M215.13,118.16c0,1.68.92,3.17,2.89,3.17a2.47,2.47,0,0,0,2.62-1.78h2.25A4.71,4.71,0,0,1,218,123.2c-3.39,0-5.26-2.32-5.26-5.64,0-3,2-5.67,5.2-5.67,3.39,0,5.47,3,5.08,6.27Zm5.54-1.56a2.77,2.77,0,1,0-5.54,0Z" transform="translate(-0.16 -0.16)"></path>
    <path d="M224.35,112.18h2.23v2.08h0a3.49,3.49,0,0,1,3.14-2.37,5.82,5.82,0,0,1,.89.06v2.29a5,5,0,0,0-1-.11c-1.6,0-2.91,1.29-2.91,3.67v5.11h-2.37Z" transform="translate(-0.16 -0.16)"></path>
    <path d="M233,119.46c.15,1.39,1.17,1.87,2.44,1.87.91,0,2.45-.18,2.39-1.41s-1.79-1.39-3.52-1.78-3.45-1-3.45-3.18c0-2.34,2.54-3.07,4.49-3.07,2.21,0,4.23.89,4.5,3.3h-2.48c-.23-1.14-1.12-1.43-2.18-1.43-.69,0-2,.17-2,1.1,0,1.16,1.75,1.35,3.5,1.72s3.47,1,3.47,3.13c0,2.56-2.58,3.49-4.81,3.49-2.72,0-4.7-1.2-4.76-3.74Z" transform="translate(-0.16 -0.16)"></path>
  </g>
</svg>