<?xml version="1.0" encoding="UTF-8"?>
<svg width="77px" height="32px" viewBox="0 0 77 32" version="1.1" xmlns="http://www.w3.org/2000/svg" xmlns:xlink="http://www.w3.org/1999/xlink">
    <!-- Generator: Sketch 52.3 (67297) - http://www.bohemiancoding.com/sketch -->
    <title>Group 3</title>
    <desc>Created with Sketch.</desc>
    <g id="Checkout" stroke="none" stroke-width="1" fill="none" fill-rule="evenodd">
        <g id="01_D_OPC_NotLogged_v01" transform="translate(-120.000000, -1344.000000)" fill="#000000">
            <g id="Group-3" transform="translate(120.000000, 1344.000000)">
                <path d="M9.9214425,19.2592593 C10.8070175,18.637037 12.202924,17.6 12.202924,14.237037 C12.202924,9.91111111 9.90643275,7.92592593 6.78440546,7.92592593 L1.94511074e-13,7.92592593 L1.94511074e-13,31.7333333 L6.76939571,31.7333333 C10.5968811,31.7333333 12.4730994,28.9333333 12.4730994,24.7851852 C12.4730994,20.9185185 10.9120858,19.8518519 9.9214425,19.2592593 Z M3.99259259,11.6148148 L6.1539961,11.6148148 C7.26471735,11.6148148 8.18031189,12.4296296 8.18031189,14.6518519 C8.18031189,16.9037037 7.12962963,17.6740741 6.1539961,17.6740741 L3.99259259,17.6740741 L3.99259259,11.6148148 Z M6.21403509,28.0888889 L3.99259259,28.0888889 L3.99259259,21.3777778 L6.21403509,21.3777778 C7.73001949,21.3777778 8.45048733,22.4888889 8.45048733,24.4888889 C8.43547758,27.2148148 7.59493177,28.0888889 6.21403509,28.0888889 Z" id="Shape" fill-rule="nonzero"></path>
                <path d="M27.9631579,23.7777778 C27.9631579,20.8148148 27.0325536,19.9703704 25.7417154,19.2592593 L25.7417154,19.2444444 C26.6272904,18.6222222 28.0081871,17.5851852 28.0081871,14.237037 C28.0081871,9.91111111 25.7116959,7.92592593 22.6046784,7.92592593 L15.8202729,7.92592593 L15.8202729,31.7333333 L19.8128655,31.7333333 L19.8128655,21.3333333 C19.8128655,21.3333333 20.908577,21.3333333 21.974269,21.3333333 C23.1150097,21.3333333 23.9255361,22.2518519 23.9255361,24.3703704 L23.9255361,31.7333333 L27.9481481,31.7333333 L27.9631579,23.7777778 Z M19.8128655,11.6148148 L21.974269,11.6148148 C23.0849903,11.6148148 24.0005848,12.4296296 24.0005848,14.6518519 C24.0005848,16.9037037 22.9649123,17.6740741 21.974269,17.6740741 L19.8128655,17.6740741 L19.8128655,11.6148148 Z" id="Shape" fill-rule="nonzero"></path>
                <path d="M38.3499025,1.77635684e-14 C36.6688109,1.77635684e-14 31.7606238,0.37037037 31.7606238,5.18518519 L31.7606238,31.7481481 L35.7532164,31.7481481 L35.7532164,21.3481481 L40.9315789,21.3481481 L40.9315789,31.7333333 L44.9241715,31.7333333 L44.9241715,5.18518519 C44.9241715,0.37037037 40.0159844,1.77635684e-14 38.3499025,1.77635684e-14 Z M35.7532164,5.77777778 C35.7532164,3.98518519 37.434308,3.74814815 38.3499025,3.74814815 C39.2654971,3.74814815 40.9465887,3.98518519 40.9465887,5.77777778 L40.9465887,17.6740741 L35.7532164,17.6740741 L35.7532164,5.77777778 Z" id="Shape" fill-rule="nonzero"></path>
                <path d="M56.9019493,7.94074074 L56.9019493,26.6666667 C56.9019493,27.6148148 56.091423,28.2518519 54.905653,28.2518519 C53.7048733,28.2518519 52.9243665,27.6148148 52.9243665,26.6666667 L52.9243665,7.94074074 L48.9317739,7.94074074 L48.9317739,27.3037037 C48.9317739,30.9925926 52.7892788,31.9703704 54.9206628,31.9703704 C57.0220273,31.9703704 60.9095517,30.9777778 60.9095517,27.2888889 L60.9095517,7.94074074 L56.9019493,7.94074074 Z" id="Path"></path>
                <path d="M72.8573099,31.7481481 L72.8573099,13.0074074 C72.8573099,12.0592593 72.0467836,11.4222222 70.8610136,11.4222222 C69.6752437,11.4222222 68.8797271,12.0592593 68.8797271,13.0074074 L68.8797271,31.7481481 L64.8871345,31.7481481 L64.8871345,12.3851852 C64.8871345,8.6962963 68.7446394,7.71851852 70.8760234,7.71851852 C72.9773879,7.71851852 76.8649123,8.71111111 76.8649123,12.4 L76.8649123,31.7481481 L72.8573099,31.7481481 Z" id="Path"></path>
            </g>
        </g>
    </g>
</svg>